<?xml version="1.0" encoding="utf-8" ?>
<svg baseProfile="tiny" height="29500px" version="1.2" width="20800px" xmlns="http://www.w3.org/2000/svg" xmlns:ev="http://www.w3.org/2001/xml-events" xmlns:xlink="http://www.w3.org/1999/xlink"><defs /><path d="M 877 968 L 826.0 980.0 L 831 1138 " fill="none" stroke="black" stroke-width="1" /><path d="M 775 1020 L 973 1020 " fill="none" stroke="black" stroke-width="1" /><path d="M 793 1136 L 833 1136 " fill="none" stroke="black" stroke-width="1" /><path d="M 931 972 L 959 1000 " fill="none" stroke="black" stroke-width="1" /><path d="M 971 1102 L 953 1138 " fill="none" stroke="black" stroke-width="1" /><path d="M 947 1046 L 937.0 1068.0 L 905.0 1101.0 L 857 1124 " fill="none" stroke="black" stroke-width="1" /><path d="M 901 964 L 900.0 1048.0 L 921 1124 " fill="none" stroke="black" stroke-width="1" /><path d="M 845 974 L 813.0 981.0 L 789 986 " fill="none" stroke="black" stroke-width="1" /><path d="M 877 1060 L 781 1084 " fill="none" stroke="black" stroke-width="1" /><path d="M 1036 992 L 1036 1140 " fill="none" stroke="black" stroke-width="1" /><path d="M 1128 966 L 1128 1102 " fill="none" stroke="black" stroke-width="1" /><path d="M 1086 984 L 1086.0 1135.0 L 1186 1134 " fill="none" stroke="black" stroke-width="1" /><path d="M 1050 968 L 1016 1036 " fill="none" stroke="black" stroke-width="1" /><path d="M 1196 1106 L 1188 1138 " fill="none" stroke="black" stroke-width="1" /><path d="M 1182 1004 L 1182.0 1042.0 L 1170 1086 " fill="none" stroke="black" stroke-width="1" /><path d="M 1182 1006 L 1094 1028 " fill="none" stroke="black" stroke-width="1" /><path d="M 1156 1010 L 1107.0 1028.0 L 1054 1040 " fill="none" stroke="black" stroke-width="1" /><path d="M 1339 1086 L 1339 1128 " fill="none" stroke="black" stroke-width="1" /><path d="M 1367 970 L 1367 1070 " fill="none" stroke="black" stroke-width="1" /><path d="M 1317 970 L 1423 970 " fill="none" stroke="black" stroke-width="1" /><path d="M 1317 1000 L 1417 1000 " fill="none" stroke="black" stroke-width="1" /><path d="M 1247 1006 L 1295 1006 " fill="none" stroke="black" stroke-width="1" /><path d="M 1317 1034 L 1417 1034 " fill="none" stroke="black" stroke-width="1" /><path d="M 1257 972 L 1234.0 1063.0 L 1262.0 1084.0 L 1289 1110 " fill="none" stroke="black" stroke-width="1" /><path d="M 1283 982 L 1285.0 1033.0 L 1273.0 1082.0 L 1257.0 1111.0 L 1227 1138 " fill="none" stroke="black" stroke-width="1" /><path d="M 1315 1092 L 1295 1132 " fill="none" stroke="black" stroke-width="1" /><path d="M 1363 1092 L 1371 1124 " fill="none" stroke="black" stroke-width="1" /><path d="M 1389 1084 L 1397 1116 " fill="none" stroke="black" stroke-width="1" /><path d="M 1263 1006 L 1223 1016 " fill="none" stroke="black" stroke-width="1" /><path d="M 1317 970 L 1317.0 1068.0 L 1422.0 1066.0 L 1420.0 1102.0 L 1412.0 1134.0 L 1375 1140 " fill="none" stroke="black" stroke-width="1" /><path d="M 1484 970 L 1484 1026 " fill="none" stroke="black" stroke-width="1" /><path d="M 1540 1040 L 1540 1138 " fill="none" stroke="black" stroke-width="1" /><path d="M 1484 970 L 1616.0 970.0 L 1614 1026 " fill="none" stroke="black" stroke-width="1" /><path d="M 1508 992 L 1592 992 " fill="none" stroke="black" stroke-width="1" /><path d="M 1508 1016 L 1592 1016 " fill="none" stroke="black" stroke-width="1" /><path d="M 1452 1040 L 1648 1040 " fill="none" stroke="black" stroke-width="1" /><path d="M 1472 1064 L 1544 1064 " fill="none" stroke="black" stroke-width="1" /><path d="M 1558 1064 L 1636 1064 " fill="none" stroke="black" stroke-width="1" /><path d="M 1472 1090 L 1544 1090 " fill="none" stroke="black" stroke-width="1" /><path d="M 1472 1040 L 1468.0 1122.0 L 1492.0 1119.0 L 1514 1118 " fill="none" stroke="black" stroke-width="1" /><path d="M 1450 1122 L 1478 1122 " fill="none" stroke="black" stroke-width="1" /><path d="M 1564 1064 L 1579.0 1095.0 L 1602.0 1117.0 L 1646 1138 " fill="none" stroke="black" stroke-width="1" /><path d="M 1634 1068 L 1621.0 1096.0 L 1594.0 1122.0 L 1560 1138 " fill="none" stroke="black" stroke-width="1" /><path d="M 1536 1112 L 1504 1120 " fill="none" stroke="black" stroke-width="1" /><path d="M 1689 1012 L 1681 1044 " fill="none" stroke="black" stroke-width="1" /><path d="M 1849 980 L 1829 1000 " fill="none" stroke="black" stroke-width="1" /><path d="M 1693 976 L 1753.0 975.0 L 1791.0 973.0 L 1814.0 971.0 L 1837 970 " fill="none" stroke="black" stroke-width="1" /><path d="M 1715 990 L 1735 1000 " fill="none" stroke="black" stroke-width="1" /><path d="M 1743 1026 L 1743.0 1057.0 L 1813 1056 " fill="none" stroke="black" stroke-width="1" /><path d="M 1773 1026 L 1789 1042 " fill="none" stroke="black" stroke-width="1" /><path d="M 1775 986 L 1789 1000 " fill="none" stroke="black" stroke-width="1" /><path d="M 1835 1032 L 1861 1058 " fill="none" stroke="black" stroke-width="1" /><path d="M 1683 1008 L 1867.0 1010.0 L 1871 1044 " fill="none" stroke="black" stroke-width="1" /><path d="M 1719 1032 L 1687 1064 " fill="none" stroke="black" stroke-width="1" /><path d="M 1749 1076 L 1713.0 1095.0 L 1681 1104 " fill="none" stroke="black" stroke-width="1" /><path d="M 1713 1074 L 1736.0 1097.0 L 1777.0 1118.0 L 1835.0 1131.0 L 1867 1138 " fill="none" stroke="black" stroke-width="1" /><path d="M 1735 1082 L 1839.0 1081.0 L 1822.0 1096.0 L 1787.0 1114.0 L 1763.0 1121.0 L 1705.0 1133.0 L 1681 1138 " fill="none" stroke="black" stroke-width="1" /><path d="M 100 1180 L 160.0 1180.0 L 156 1228 " fill="none" stroke="black" stroke-width="1" /><path d="M 196 1180 L 196 1348 " fill="none" stroke="black" stroke-width="1" /><path d="M 196 1180 L 292 1180 " fill="none" stroke="black" stroke-width="1" /><path d="M 196 1208 L 280 1208 " fill="none" stroke="black" stroke-width="1" /><path d="M 116 1224 L 164 1224 " fill="none" stroke="black" stroke-width="1" /><path d="M 196 1238 L 280 1238 " fill="none" stroke="black" stroke-width="1" /><path d="M 176 1270 L 298 1270 " fill="none" stroke="black" stroke-width="1" /><path d="M 106 1342 L 152 1342 " fill="none" stroke="black" stroke-width="1" /><path d="M 278 1300 L 247.0 1308.0 L 276.0 1336.0 L 300 1346 " fill="none" stroke="black" stroke-width="1" /><path d="M 110 1270 L 159.0 1270.0 L 157.0 1319.0 L 148 1350 " fill="none" stroke="black" stroke-width="1" /><path d="M 238 1332 L 190 1348 " fill="none" stroke="black" stroke-width="1" /><path d="M 118 1230 L 108 1270 " fill="none" stroke="black" stroke-width="1" /><path d="M 242 1290 L 234 1292 " fill="none" stroke="black" stroke-width="1" /><path d="M 375 1176 L 375 1216 " fill="none" stroke="black" stroke-width="1" /><path d="M 339 1264 L 415.0 1264.0 L 413 1298 " fill="none" stroke="black" stroke-width="1" /><path d="M 415 1186 L 415 1216 " fill="none" stroke="black" stroke-width="1" /><path d="M 447 1182 L 494.0 1182.0 L 493 1348 " fill="none" stroke="black" stroke-width="1" /><path d="M 337 1190 L 341.0 1217.0 L 419 1212 " fill="none" stroke="black" stroke-width="1" /><path d="M 325 1236 L 429 1236 " fill="none" stroke="black" stroke-width="1" /><path d="M 339 1264 L 339.0 1296.0 L 417 1294 " fill="none" stroke="black" stroke-width="1" /><path d="M 523 1312 L 516.0 1346.0 L 499 1350 " fill="none" stroke="black" stroke-width="1" /><path d="M 447 1182 L 449.0 1285.0 L 433 1342 " fill="none" stroke="black" stroke-width="1" /><path d="M 351 1296 L 363.0 1340.0 L 331 1344 " fill="none" stroke="black" stroke-width="1" /><path d="M 403 1306 L 391.0 1335.0 L 355 1342 " fill="none" stroke="black" stroke-width="1" /><path d="M 411 1330 L 379 1338 " fill="none" stroke="black" stroke-width="1" /><path d="M 660 1204 L 660 1350 " fill="none" stroke="black" stroke-width="1" /><path d="M 708 1186 L 708 1336 " fill="none" stroke="black" stroke-width="1" /><path d="M 554 1204 L 642 1204 " fill="none" stroke="black" stroke-width="1" /><path d="M 654 1216 L 746 1216 " fill="none" stroke="black" stroke-width="1" /><path d="M 658 1252 L 742 1252 " fill="none" stroke="black" stroke-width="1" /><path d="M 658 1292 L 742 1292 " fill="none" stroke="black" stroke-width="1" /><path d="M 658 1332 L 748 1332 " fill="none" stroke="black" stroke-width="1" /><path d="M 612 1240 L 600.0 1282.0 L 576.0 1324.0 L 566 1342 " fill="none" stroke="black" stroke-width="1" /><path d="M 674 1178 L 655.0 1225.0 L 628 1250 " fill="none" stroke="black" stroke-width="1" /><path d="M 620 1294 L 638 1348 " fill="none" stroke="black" stroke-width="1" /><path d="M 600 1174 L 582.0 1254.0 L 554 1306 " fill="none" stroke="black" stroke-width="1" /><path d="M 628 1324 L 556 1342 " fill="none" stroke="black" stroke-width="1" /><path d="M 969 1178 L 944.0 1204.0 L 923.0 1216.0 L 875.0 1243.0 L 877 1346 " fill="none" stroke="black" stroke-width="1" /><path d="M 775 1178 L 975 1178 " fill="none" stroke="black" stroke-width="1" /><path d="M 827 1346 L 875 1346 " fill="none" stroke="black" stroke-width="1" /><path d="M 1048 1174 L 1048 1228 " fill="none" stroke="black" stroke-width="1" /><path d="M 1048 1282 L 1048 1350 " fill="none" stroke="black" stroke-width="1" /><path d="M 1014 1224 L 1082.0 1224.0 L 1080 1288 " fill="none" stroke="black" stroke-width="1" /><path d="M 1144 1234 L 1144 1350 " fill="none" stroke="black" stroke-width="1" /><path d="M 1006 1194 L 1094 1194 " fill="none" stroke="black" stroke-width="1" /><path d="M 1110 1234 L 1182 1234 " fill="none" stroke="black" stroke-width="1" /><path d="M 1014 1252 L 1084 1252 " fill="none" stroke="black" stroke-width="1" /><path d="M 1100 1278 L 1196 1278 " fill="none" stroke="black" stroke-width="1" /><path d="M 1014 1224 L 1014.0 1285.0 L 1084 1282 " fill="none" stroke="black" stroke-width="1" /><path d="M 1002 1312 L 1096 1312 " fill="none" stroke="black" stroke-width="1" /><path d="M 1146 1174 L 1155.0 1193.0 L 1190 1226 " fill="none" stroke="black" stroke-width="1" /><path d="M 1144 1174 L 1134.0 1195.0 L 1098 1230 " fill="none" stroke="black" stroke-width="1" /><path d="M 1327 1178 L 1276.0 1190.0 L 1281 1348 " fill="none" stroke="black" stroke-width="1" /><path d="M 1225 1230 L 1423 1230 " fill="none" stroke="black" stroke-width="1" /><path d="M 1243 1346 L 1283 1346 " fill="none" stroke="black" stroke-width="1" /><path d="M 1381 1182 L 1409 1210 " fill="none" stroke="black" stroke-width="1" /><path d="M 1421 1312 L 1403 1348 " fill="none" stroke="black" stroke-width="1" /><path d="M 1397 1256 L 1387.0 1278.0 L 1355.0 1311.0 L 1307 1334 " fill="none" stroke="black" stroke-width="1" /><path d="M 1351 1174 L 1350.0 1258.0 L 1371 1334 " fill="none" stroke="black" stroke-width="1" /><path d="M 1295 1184 L 1263.0 1191.0 L 1239 1196 " fill="none" stroke="black" stroke-width="1" /><path d="M 1327 1270 L 1231 1294 " fill="none" stroke="black" stroke-width="1" /><path d="M 1486 1202 L 1486 1350 " fill="none" stroke="black" stroke-width="1" /><path d="M 1578 1176 L 1578 1312 " fill="none" stroke="black" stroke-width="1" /><path d="M 1536 1194 L 1536.0 1345.0 L 1636 1344 " fill="none" stroke="black" stroke-width="1" /><path d="M 1500 1178 L 1466 1246 " fill="none" stroke="black" stroke-width="1" /><path d="M 1646 1316 L 1638 1348 " fill="none" stroke="black" stroke-width="1" /><path d="M 1632 1214 L 1632.0 1252.0 L 1620 1296 " fill="none" stroke="black" stroke-width="1" /><path d="M 1632 1216 L 1544 1238 " fill="none" stroke="black" stroke-width="1" /><path d="M 1606 1220 L 1557.0 1238.0 L 1504 1250 " fill="none" stroke="black" stroke-width="1" /><path d="M 1789 1296 L 1789 1338 " fill="none" stroke="black" stroke-width="1" /><path d="M 1817 1180 L 1817 1280 " fill="none" stroke="black" stroke-width="1" /><path d="M 1767 1180 L 1873 1180 " fill="none" stroke="black" stroke-width="1" /><path d="M 1767 1210 L 1867 1210 " fill="none" stroke="black" stroke-width="1" /><path d="M 1697 1216 L 1745 1216 " fill="none" stroke="black" stroke-width="1" /><path d="M 1767 1244 L 1867 1244 " fill="none" stroke="black" stroke-width="1" /><path d="M 1707 1182 L 1684.0 1273.0 L 1712.0 1294.0 L 1739 1320 " fill="none" stroke="black" stroke-width="1" /><path d="M 1733 1192 L 1735.0 1243.0 L 1723.0 1292.0 L 1707.0 1321.0 L 1677 1348 " fill="none" stroke="black" stroke-width="1" /><path d="M 1765 1302 L 1745 1342 " fill="none" stroke="black" stroke-width="1" /><path d="M 1813 1302 L 1821 1334 " fill="none" stroke="black" stroke-width="1" /><path d="M 1839 1294 L 1847 1326 " fill="none" stroke="black" stroke-width="1" /><path d="M 1713 1216 L 1673 1226 " fill="none" stroke="black" stroke-width="1" /><path d="M 1767 1180 L 1767.0 1278.0 L 1872.0 1276.0 L 1870.0 1312.0 L 1862.0 1344.0 L 1825 1350 " fill="none" stroke="black" stroke-width="1" /><path d="M 134 1390 L 134 1446 " fill="none" stroke="black" stroke-width="1" /><path d="M 190 1460 L 190 1558 " fill="none" stroke="black" stroke-width="1" /><path d="M 134 1390 L 266.0 1390.0 L 264 1446 " fill="none" stroke="black" stroke-width="1" /><path d="M 158 1412 L 242 1412 " fill="none" stroke="black" stroke-width="1" /><path d="M 158 1436 L 242 1436 " fill="none" stroke="black" stroke-width="1" /><path d="M 102 1460 L 298 1460 " fill="none" stroke="black" stroke-width="1" /><path d="M 122 1484 L 194 1484 " fill="none" stroke="black" stroke-width="1" /><path d="M 208 1484 L 286 1484 " fill="none" stroke="black" stroke-width="1" /><path d="M 122 1510 L 194 1510 " fill="none" stroke="black" stroke-width="1" /><path d="M 122 1460 L 118.0 1542.0 L 142.0 1539.0 L 164 1538 " fill="none" stroke="black" stroke-width="1" /><path d="M 100 1542 L 128 1542 " fill="none" stroke="black" stroke-width="1" /><path d="M 214 1484 L 229.0 1515.0 L 252.0 1537.0 L 296 1558 " fill="none" stroke="black" stroke-width="1" /><path d="M 284 1488 L 271.0 1516.0 L 244.0 1542.0 L 210 1558 " fill="none" stroke="black" stroke-width="1" /><path d="M 186 1532 L 154 1540 " fill="none" stroke="black" stroke-width="1" /><path d="M 339 1432 L 331 1464 " fill="none" stroke="black" stroke-width="1" /><path d="M 499 1400 L 479 1420 " fill="none" stroke="black" stroke-width="1" /><path d="M 343 1396 L 403.0 1395.0 L 441.0 1393.0 L 464.0 1391.0 L 487 1390 " fill="none" stroke="black" stroke-width="1" /><path d="M 365 1410 L 385 1420 " fill="none" stroke="black" stroke-width="1" /><path d="M 393 1446 L 393.0 1477.0 L 463 1476 " fill="none" stroke="black" stroke-width="1" /><path d="M 423 1446 L 439 1462 " fill="none" stroke="black" stroke-width="1" /><path d="M 425 1406 L 439 1420 " fill="none" stroke="black" stroke-width="1" /><path d="M 485 1452 L 511 1478 " fill="none" stroke="black" stroke-width="1" /><path d="M 333 1428 L 517.0 1430.0 L 521 1464 " fill="none" stroke="black" stroke-width="1" /><path d="M 369 1452 L 337 1484 " fill="none" stroke="black" stroke-width="1" /><path d="M 399 1496 L 363.0 1515.0 L 331 1524 " fill="none" stroke="black" stroke-width="1" /><path d="M 363 1494 L 386.0 1517.0 L 427.0 1538.0 L 485.0 1551.0 L 517 1558 " fill="none" stroke="black" stroke-width="1" /><path d="M 385 1502 L 489.0 1501.0 L 472.0 1516.0 L 437.0 1534.0 L 413.0 1541.0 L 355.0 1553.0 L 331 1558 " fill="none" stroke="black" stroke-width="1" /><path d="M 550 1390 L 610.0 1390.0 L 606 1438 " fill="none" stroke="black" stroke-width="1" /><path d="M 646 1390 L 646 1558 " fill="none" stroke="black" stroke-width="1" /><path d="M 646 1390 L 742 1390 " fill="none" stroke="black" stroke-width="1" /><path d="M 646 1418 L 730 1418 " fill="none" stroke="black" stroke-width="1" /><path d="M 566 1434 L 614 1434 " fill="none" stroke="black" stroke-width="1" /><path d="M 646 1448 L 730 1448 " fill="none" stroke="black" stroke-width="1" /><path d="M 626 1480 L 748 1480 " fill="none" stroke="black" stroke-width="1" /><path d="M 556 1552 L 602 1552 " fill="none" stroke="black" stroke-width="1" /><path d="M 728 1510 L 697.0 1518.0 L 726.0 1546.0 L 750 1556 " fill="none" stroke="black" stroke-width="1" /><path d="M 560 1480 L 609.0 1480.0 L 607.0 1529.0 L 598 1560 " fill="none" stroke="black" stroke-width="1" /><path d="M 688 1542 L 640 1558 " fill="none" stroke="black" stroke-width="1" /><path d="M 568 1440 L 558 1480 " fill="none" stroke="black" stroke-width="1" /><path d="M 692 1500 L 684 1502 " fill="none" stroke="black" stroke-width="1" /><path d="M 825 1386 L 825 1426 " fill="none" stroke="black" stroke-width="1" /><path d="M 789 1474 L 865.0 1474.0 L 863 1508 " fill="none" stroke="black" stroke-width="1" /><path d="M 865 1396 L 865 1426 " fill="none" stroke="black" stroke-width="1" /><path d="M 897 1392 L 944.0 1392.0 L 943 1558 " fill="none" stroke="black" stroke-width="1" /><path d="M 787 1400 L 791.0 1427.0 L 869 1422 " fill="none" stroke="black" stroke-width="1" /><path d="M 775 1446 L 879 1446 " fill="none" stroke="black" stroke-width="1" /><path d="M 789 1474 L 789.0 1506.0 L 867 1504 " fill="none" stroke="black" stroke-width="1" /><path d="M 973 1522 L 966.0 1556.0 L 949 1560 " fill="none" stroke="black" stroke-width="1" /><path d="M 897 1392 L 899.0 1495.0 L 883 1552 " fill="none" stroke="black" stroke-width="1" /><path d="M 801 1506 L 813.0 1550.0 L 781 1554 " fill="none" stroke="black" stroke-width="1" /><path d="M 853 1516 L 841.0 1545.0 L 805 1552 " fill="none" stroke="black" stroke-width="1" /><path d="M 861 1540 L 829 1548 " fill="none" stroke="black" stroke-width="1" /><path d="M 1110 1414 L 1110 1560 " fill="none" stroke="black" stroke-width="1" /><path d="M 1158 1396 L 1158 1546 " fill="none" stroke="black" stroke-width="1" /><path d="M 1004 1414 L 1092 1414 " fill="none" stroke="black" stroke-width="1" /><path d="M 1104 1426 L 1196 1426 " fill="none" stroke="black" stroke-width="1" /><path d="M 1108 1462 L 1192 1462 " fill="none" stroke="black" stroke-width="1" /><path d="M 1108 1502 L 1192 1502 " fill="none" stroke="black" stroke-width="1" /><path d="M 1108 1542 L 1198 1542 " fill="none" stroke="black" stroke-width="1" /><path d="M 1062 1450 L 1050.0 1492.0 L 1026.0 1534.0 L 1016 1552 " fill="none" stroke="black" stroke-width="1" /><path d="M 1124 1388 L 1105.0 1435.0 L 1078 1460 " fill="none" stroke="black" stroke-width="1" /><path d="M 1070 1504 L 1088 1558 " fill="none" stroke="black" stroke-width="1" /><path d="M 1050 1384 L 1032.0 1464.0 L 1004 1516 " fill="none" stroke="black" stroke-width="1" /><path d="M 1078 1534 L 1006 1552 " fill="none" stroke="black" stroke-width="1" /><path d="M 1419 1388 L 1394.0 1414.0 L 1373.0 1426.0 L 1325.0 1453.0 L 1327 1556 " fill="none" stroke="black" stroke-width="1" /><path d="M 1225 1388 L 1425 1388 " fill="none" stroke="black" stroke-width="1" /><path d="M 1277 1556 L 1325 1556 " fill="none" stroke="black" stroke-width="1" /><path d="M 1498 1384 L 1498 1438 " fill="none" stroke="black" stroke-width="1" /><path d="M 1498 1492 L 1498 1560 " fill="none" stroke="black" stroke-width="1" /><path d="M 1464 1434 L 1532.0 1434.0 L 1530 1498 " fill="none" stroke="black" stroke-width="1" /><path d="M 1594 1444 L 1594 1560 " fill="none" stroke="black" stroke-width="1" /><path d="M 1456 1404 L 1544 1404 " fill="none" stroke="black" stroke-width="1" /><path d="M 1560 1444 L 1632 1444 " fill="none" stroke="black" stroke-width="1" /><path d="M 1464 1462 L 1534 1462 " fill="none" stroke="black" stroke-width="1" /><path d="M 1550 1488 L 1646 1488 " fill="none" stroke="black" stroke-width="1" /><path d="M 1464 1434 L 1464.0 1495.0 L 1534 1492 " fill="none" stroke="black" stroke-width="1" /><path d="M 1452 1522 L 1546 1522 " fill="none" stroke="black" stroke-width="1" /><path d="M 1596 1384 L 1605.0 1403.0 L 1640 1436 " fill="none" stroke="black" stroke-width="1" /><path d="M 1594 1384 L 1584.0 1405.0 L 1548 1440 " fill="none" stroke="black" stroke-width="1" /></svg>