<?xml version="1.0" encoding="utf-8" ?>
<svg baseProfile="tiny" height="29500px" version="1.2" width="20800px" xmlns="http://www.w3.org/2000/svg" xmlns:ev="http://www.w3.org/2001/xml-events" xmlns:xlink="http://www.w3.org/1999/xlink"><defs /><path d="M 117 115 L 117 143 " fill="none" stroke="black" stroke-width="1" /><path d="M 145 150 L 145 199 " fill="none" stroke="black" stroke-width="1" /><path d="M 117 115 L 183.0 115.0 L 182 143 " fill="none" stroke="black" stroke-width="1" /><path d="M 129 126 L 171 126 " fill="none" stroke="black" stroke-width="1" /><path d="M 129 138 L 171 138 " fill="none" stroke="black" stroke-width="1" /><path d="M 101 150 L 199 150 " fill="none" stroke="black" stroke-width="1" /><path d="M 111 162 L 147 162 " fill="none" stroke="black" stroke-width="1" /><path d="M 154 162 L 193 162 " fill="none" stroke="black" stroke-width="1" /><path d="M 111 175 L 147 175 " fill="none" stroke="black" stroke-width="1" /><path d="M 111 150 L 109.0 191.0 L 121.0 189.5 L 132 189 " fill="none" stroke="black" stroke-width="1" /><path d="M 100 191 L 114 191 " fill="none" stroke="black" stroke-width="1" /><path d="M 157 162 L 164.5 177.5 L 176.0 188.5 L 198 199 " fill="none" stroke="black" stroke-width="1" /><path d="M 192 164 L 185.5 178.0 L 172.0 191.0 L 155 199 " fill="none" stroke="black" stroke-width="1" /><path d="M 143 186 L 127 190 " fill="none" stroke="black" stroke-width="1" /><path d="M 232 136 L 228 152 " fill="none" stroke="black" stroke-width="1" /><path d="M 312 120 L 302 130 " fill="none" stroke="black" stroke-width="1" /><path d="M 234 118 L 264.0 117.5 L 283.0 116.5 L 294.5 115.5 L 306 115 " fill="none" stroke="black" stroke-width="1" /><path d="M 245 125 L 255 130 " fill="none" stroke="black" stroke-width="1" /><path d="M 259 143 L 259.0 158.5 L 294 158 " fill="none" stroke="black" stroke-width="1" /><path d="M 274 143 L 282 151 " fill="none" stroke="black" stroke-width="1" /><path d="M 275 123 L 282 130 " fill="none" stroke="black" stroke-width="1" /><path d="M 305 146 L 318 159 " fill="none" stroke="black" stroke-width="1" /><path d="M 229 134 L 321.0 135.0 L 323 152 " fill="none" stroke="black" stroke-width="1" /><path d="M 247 146 L 231 162 " fill="none" stroke="black" stroke-width="1" /><path d="M 262 168 L 244.0 177.5 L 228 182 " fill="none" stroke="black" stroke-width="1" /><path d="M 244 167 L 255.5 178.5 L 276.0 189.0 L 305.0 195.5 L 321 199 " fill="none" stroke="black" stroke-width="1" /><path d="M 255 171 L 307.0 170.5 L 298.5 178.0 L 281.0 187.0 L 269.0 190.5 L 240.0 196.5 L 228 199 " fill="none" stroke="black" stroke-width="1" /><path d="M 350 115 L 380.0 115.0 L 378 139 " fill="none" stroke="black" stroke-width="1" /><path d="M 398 115 L 398 199 " fill="none" stroke="black" stroke-width="1" /><path d="M 398 115 L 446 115 " fill="none" stroke="black" stroke-width="1" /><path d="M 398 129 L 440 129 " fill="none" stroke="black" stroke-width="1" /><path d="M 358 137 L 382 137 " fill="none" stroke="black" stroke-width="1" /><path d="M 398 144 L 440 144 " fill="none" stroke="black" stroke-width="1" /><path d="M 388 160 L 449 160 " fill="none" stroke="black" stroke-width="1" /><path d="M 353 196 L 376 196 " fill="none" stroke="black" stroke-width="1" /><path d="M 439 175 L 423.5 179.0 L 438.0 193.0 L 450 198 " fill="none" stroke="black" stroke-width="1" /><path d="M 355 160 L 379.5 160.0 L 378.5 184.5 L 374 200 " fill="none" stroke="black" stroke-width="1" /><path d="M 419 191 L 395 199 " fill="none" stroke="black" stroke-width="1" /><path d="M 359 140 L 354 160 " fill="none" stroke="black" stroke-width="1" /><path d="M 421 170 L 417 171 " fill="none" stroke="black" stroke-width="1" /><path d="M 500 113 L 500 133 " fill="none" stroke="black" stroke-width="1" /><path d="M 482 157 L 520.0 157.0 L 519 174 " fill="none" stroke="black" stroke-width="1" /><path d="M 520 118 L 520 133 " fill="none" stroke="black" stroke-width="1" /><path d="M 536 116 L 559.5 116.0 L 559 199 " fill="none" stroke="black" stroke-width="1" /><path d="M 481 120 L 483.0 133.5 L 522 131 " fill="none" stroke="black" stroke-width="1" /><path d="M 475 143 L 527 143 " fill="none" stroke="black" stroke-width="1" /><path d="M 482 157 L 482.0 173.0 L 521 172 " fill="none" stroke="black" stroke-width="1" /><path d="M 574 181 L 570.5 198.0 L 562 200 " fill="none" stroke="black" stroke-width="1" /><path d="M 536 116 L 537.0 167.5 L 529 196 " fill="none" stroke="black" stroke-width="1" /><path d="M 488 173 L 494.0 195.0 L 478 197 " fill="none" stroke="black" stroke-width="1" /><path d="M 514 178 L 508.0 192.5 L 490 196 " fill="none" stroke="black" stroke-width="1" /><path d="M 518 190 L 502 194 " fill="none" stroke="black" stroke-width="1" /><path d="M 655 127 L 655 200 " fill="none" stroke="black" stroke-width="1" /><path d="M 679 118 L 679 193 " fill="none" stroke="black" stroke-width="1" /><path d="M 602 127 L 646 127 " fill="none" stroke="black" stroke-width="1" /><path d="M 652 133 L 698 133 " fill="none" stroke="black" stroke-width="1" /><path d="M 654 151 L 696 151 " fill="none" stroke="black" stroke-width="1" /><path d="M 654 171 L 696 171 " fill="none" stroke="black" stroke-width="1" /><path d="M 654 191 L 699 191 " fill="none" stroke="black" stroke-width="1" /><path d="M 631 145 L 625.0 166.0 L 613.0 187.0 L 608 196 " fill="none" stroke="black" stroke-width="1" /><path d="M 662 114 L 652.5 137.5 L 639 150 " fill="none" stroke="black" stroke-width="1" /><path d="M 635 172 L 644 199 " fill="none" stroke="black" stroke-width="1" /><path d="M 625 112 L 616.0 152.0 L 602 178 " fill="none" stroke="black" stroke-width="1" /><path d="M 639 187 L 603 196 " fill="none" stroke="black" stroke-width="1" /><path d="M 822 114 L 809.5 127.0 L 799.0 133.0 L 775.0 146.5 L 776 198 " fill="none" stroke="black" stroke-width="1" /><path d="M 725 114 L 825 114 " fill="none" stroke="black" stroke-width="1" /><path d="M 751 198 L 775 198 " fill="none" stroke="black" stroke-width="1" /><path d="M 874 112 L 874 139 " fill="none" stroke="black" stroke-width="1" /><path d="M 874 166 L 874 200 " fill="none" stroke="black" stroke-width="1" /><path d="M 857 137 L 891.0 137.0 L 890 169 " fill="none" stroke="black" stroke-width="1" /><path d="M 922 142 L 922 200 " fill="none" stroke="black" stroke-width="1" /><path d="M 853 122 L 897 122 " fill="none" stroke="black" stroke-width="1" /><path d="M 905 142 L 941 142 " fill="none" stroke="black" stroke-width="1" /><path d="M 857 151 L 892 151 " fill="none" stroke="black" stroke-width="1" /><path d="M 900 164 L 948 164 " fill="none" stroke="black" stroke-width="1" /><path d="M 857 137 L 857.0 167.5 L 892 166 " fill="none" stroke="black" stroke-width="1" /><path d="M 851 181 L 898 181 " fill="none" stroke="black" stroke-width="1" /><path d="M 923 112 L 927.5 121.5 L 945 138 " fill="none" stroke="black" stroke-width="1" /><path d="M 922 112 L 917.0 122.5 L 899 140 " fill="none" stroke="black" stroke-width="1" /></svg>